{"title":"The.Monkey.King.2.2016.BRRip.720p.x264.AAC-PRiSTiNE [P2PDL]","uid":14345881,"size":797467304,"categoryP":"video","categoryS":"movies","magnet":"?xt=urn:btih:1f350d1dbc585473281c576f8f698cfec6f97112&amp;dn=The.Monkey.King.2.2016.BRRip.720p.x264.AAC-PRiSTiNE+%5BP2PDL%5D&amp;tr=udp%3A%2F%2Ftracker.leechers-paradise.org%3A6969&amp;tr=udp%3A%2F%2Fzer0day.ch%3A1337&amp;tr=udp%3A%2F%2Fopen.demonii.com%3A1337&amp;tr=udp%3A%2F%2Ftracker.coppersurfer.tk%3A6969&amp;tr=udp%3A%2F%2Fexodus.desync.com%3A6969","seeders":6,"leechers":3,"uploader":"VYTOP2PDL","files":7,"time":1460795478,"description":"____    ____ ____    ____ .___________.  ______   \r\n     /   /      /   / |           | /  __    \r\n    /   /      /   /  `---|  |----`|  |  |  | \r\n        /     _    _/       |  |     |  |  |  | \r\n       /        |  |         |  |     |  `--'  | \r\n    __/         |__|         |__|      ______/  \r\n                                                  \r\nPresenting Small Encodes with quality for years!\r\n                                                                                                   \r\n                                                                                                   \r\n\r\n\r\nThe.Monkey.King.2.2016.BRRip.720p.x264.AAC-PRiSTiNE\r\n\r\n\r\nGenre: Action, Adventure, Fantasy \nhttp://www.imdb.com/title/tt4591310/\r\n\r\n\r\nFormat                                   : MPEG-4\r\nFile size                                : 752 MiB\r\nDuration                                 : 1h 59mn\r\nOverall bit rate                         : 882 Kbps\r\n\r\nVideo\r\nFormat                                   : AVC\r\nBit rate                                 : 799 Kbps\r\nWidth                                    : 1 280 pixels\r\nHeight                                   : 544 pixels\r\nDisplay aspect ratio                     : 2.35:1\r\nFrame rate mode                          : Constant\r\nFrame rate                               : 23.976 fps\r\nBit depth                                : 8 bits\r\nStream size                              : 681 MiB (91%)\r\nWriting library                          : x264\r\n\r\nAudio\r\nFormat                                   : AAC\r\nBit rate mode                            : Variable\r\nBit rate                                 : 80.0 Kbps\r\nChannel(s)                               : 2 channels\r\nChannel positions                        : Front: L R\r\nSampling rate                            : 48.0 KHz \r\nStream size                              : 68.2 MiB (9%)\r\nLanguage                                 : Chinese\r\n\r\nSubtitle                                 : Yes (English)\r\n\r\nScreen Shots: (Click links to view)\r\n \nhttps://ititli.com/XLs \nhttps://ititli.com/XLY \nhttps://ititli.com/XL4 \nhttps://ititli.com/XLK \nhttps://ititli.com/XLV \nhttps://ititli.com/XLt \nhttps://ititli.com/XLL \nhttps://ititli.com/XLd \nhttps://ititli.com/XL0 \nhttps://ititli.com/XLA \nhttps://ititli.com/XLl \nhttps://ititli.com/XLm\r\n\r\n----------------------------------------------------------------------------------------------------\r\n\r\n\r\nEncoder Notes: Looking For Early Access To Anything You Can Provide WEBDL, DVDScr, DVDR, BluRay,\r\nDirect Audio, Music Releases and Seedboxes. If You Got anything to offer please contact us.\r\n\r\nSupport us by donating BC - 1FgwdzPsd1y25Gea8wP1qni35uGCtmkRCD\r\n\r\nFind us and join us!","torrent":{"xt":"urn:btih:1f350d1dbc585473281c576f8f698cfec6f97112","amp;dn":"The.Monkey.King.2.2016.BRRip.720p.x264.AAC-PRiSTiNE+%5BP2PDL%5D","amp;tr":["udp%3A%2F%2Ftracker.leechers-paradise.org%3A6969","udp%3A%2F%2Fzer0day.ch%3A1337","udp%3A%2F%2Fopen.demonii.com%3A1337","udp%3A%2F%2Ftracker.coppersurfer.tk%3A6969","udp%3A%2F%2Fexodus.desync.com%3A6969"],"infoHash":"1f350d1dbc585473281c576f8f698cfec6f97112","infoHashBuffer":{"type":"Buffer","data":[31,53,13,29,188,88,84,115,40,28,87,111,143,105,140,254,198,249,113,18]},"announce":[],"urlList":[]}}